<svg width="900" height="295" viewBox="0 0 900 295" xmlns="http://www.w3.org/2000/svg">

  <!-- ── Card 1: /rasco (top-left) ── -->
  <!-- Glow -->
  <rect x="8"  y="8"  width="437" height="132" rx="11" fill="#ff2e2e" opacity="0.07"/>
  <!-- Body -->
  <rect x="10" y="10" width="433" height="128" rx="9" fill="#0d1117" stroke="#ff2e2e" stroke-width="1.5"/>
  <!-- Tag -->
  <rect x="22" y="22" width="80"  height="18"  rx="4" fill="#161b22" stroke="#ff2e2e" stroke-width="0.8"/>
  <text x="62"  y="35" font-family="'Courier New',monospace" font-size="11" fill="#ff8c42" text-anchor="middle">/rasco</text>
  <!-- Title -->
  <text x="22" y="57" font-family="'Courier New',monospace" font-size="14.5" fill="#e6edf3">AI Desktop Assistant</text>
  <!-- Desc -->
  <text x="22" y="74" font-family="'Courier New',monospace" font-size="11" fill="#8b949e">Controls your PC, opens apps/sites, manages files,</text>
  <text x="22" y="89" font-family="'Courier New',monospace" font-size="11" fill="#8b949e">holds continuous conversation with memory.</text>
  <!-- Badges -->
  <rect x="22"  y="100" width="48" height="15" rx="3" fill="#161b22" stroke="#3fb950" stroke-width="0.8"/>
  <text x="46"  y="112" font-family="'Courier New',monospace" font-size="10" fill="#3fb950" text-anchor="middle">Python</text>
  <rect x="76"  y="100" width="50" height="15" rx="3" fill="#161b22" stroke="#58a6ff" stroke-width="0.8"/>
  <text x="101" y="112" font-family="'Courier New',monospace" font-size="10" fill="#58a6ff" text-anchor="middle">Tkinter</text>
  <rect x="132" y="100" width="86" height="15" rx="3" fill="#161b22" stroke="#ff8c42" stroke-width="0.8"/>
  <text x="175" y="112" font-family="'Courier New',monospace" font-size="10" fill="#ff8c42" text-anchor="middle">Claude Code</text>
  <!-- Link -->
  <text x="428" y="130" font-family="'Courier New',monospace" font-size="11" fill="#ff2e2e" text-anchor="end">-> open</text>

  <!-- ── Card 2: /gosi (top-right) ── -->
  <rect x="453" y="8"  width="437" height="132" rx="11" fill="#ff5c5c" opacity="0.07"/>
  <rect x="455" y="10" width="433" height="128" rx="9" fill="#0d1117" stroke="#ff5c5c" stroke-width="1.5"/>
  <rect x="467" y="22" width="68"  height="18"  rx="4" fill="#161b22" stroke="#ff5c5c" stroke-width="0.8"/>
  <text x="501" y="35" font-family="'Courier New',monospace" font-size="11" fill="#ff8c42" text-anchor="middle">/gosi</text>
  <text x="467" y="57" font-family="'Courier New',monospace" font-size="14.5" fill="#e6edf3">AI Coding Assistant</text>
  <text x="467" y="74" font-family="'Courier New',monospace" font-size="11" fill="#8b949e">Scans your codebase, debugs files, answers</text>
  <text x="467" y="89" font-family="'Courier New',monospace" font-size="11" fill="#8b949e">questions, edits files with auto-backup.</text>
  <rect x="467" y="100" width="48" height="15" rx="3" fill="#161b22" stroke="#3fb950" stroke-width="0.8"/>
  <text x="491" y="112" font-family="'Courier New',monospace" font-size="10" fill="#3fb950" text-anchor="middle">Python</text>
  <rect x="521" y="100" width="50" height="15" rx="3" fill="#161b22" stroke="#58a6ff" stroke-width="0.8"/>
  <text x="546" y="112" font-family="'Courier New',monospace" font-size="10" fill="#58a6ff" text-anchor="middle">Tkinter</text>
  <rect x="577" y="100" width="86" height="15" rx="3" fill="#161b22" stroke="#ff8c42" stroke-width="0.8"/>
  <text x="620" y="112" font-family="'Courier New',monospace" font-size="10" fill="#ff8c42" text-anchor="middle">Claude Code</text>
  <text x="873" y="130" font-family="'Courier New',monospace" font-size="11" fill="#ff2e2e" text-anchor="end">-> open</text>

  <!-- ── Card 3: /ex-change (bottom-left) ── -->
  <rect x="8"   y="153" width="437" height="132" rx="11" fill="#ff8c42" opacity="0.07"/>
  <rect x="10"  y="155" width="433" height="128" rx="9" fill="#0d1117" stroke="#ff8c42" stroke-width="1.5"/>
  <rect x="22"  y="167" width="96"  height="18"  rx="4" fill="#161b22" stroke="#ff8c42" stroke-width="0.8"/>
  <text x="70"  y="180" font-family="'Courier New',monospace" font-size="11" fill="#ff8c42" text-anchor="middle">/ex-change</text>
  <text x="22"  y="202" font-family="'Courier New',monospace" font-size="14.5" fill="#e6edf3">Code Translator</text>
  <text x="22"  y="219" font-family="'Courier New',monospace" font-size="11" fill="#8b949e">Translates source code across 13 programming</text>
  <text x="22"  y="234" font-family="'Courier New',monospace" font-size="11" fill="#8b949e">languages. Clean, idiomatic, ready-to-run.</text>
  <rect x="22"  y="245" width="48" height="15" rx="3" fill="#161b22" stroke="#3fb950" stroke-width="0.8"/>
  <text x="46"  y="257" font-family="'Courier New',monospace" font-size="10" fill="#3fb950" text-anchor="middle">Python</text>
  <rect x="76"  y="245" width="50" height="15" rx="3" fill="#161b22" stroke="#58a6ff" stroke-width="0.8"/>
  <text x="101" y="257" font-family="'Courier New',monospace" font-size="10" fill="#58a6ff" text-anchor="middle">Tkinter</text>
  <rect x="132" y="245" width="86" height="15" rx="3" fill="#161b22" stroke="#ff8c42" stroke-width="0.8"/>
  <text x="175" y="257" font-family="'Courier New',monospace" font-size="10" fill="#ff8c42" text-anchor="middle">Claude Code</text>
  <text x="428" y="275" font-family="'Courier New',monospace" font-size="11" fill="#ff2e2e" text-anchor="end">-> open</text>

  <!-- ── Card 4: /code-analysis (bottom-right) ── -->
  <rect x="453" y="153" width="437" height="132" rx="11" fill="#58a6ff" opacity="0.07"/>
  <rect x="455" y="155" width="433" height="128" rx="9" fill="#0d1117" stroke="#58a6ff" stroke-width="1.5"/>
  <rect x="467" y="167" width="112" height="18"  rx="4" fill="#161b22" stroke="#58a6ff" stroke-width="0.8"/>
  <text x="523" y="180" font-family="'Courier New',monospace" font-size="11" fill="#58a6ff" text-anchor="middle">/code-analysis</text>
  <text x="467" y="202" font-family="'Courier New',monospace" font-size="14.5" fill="#e6edf3">Smart Code Search</text>
  <text x="467" y="219" font-family="'Courier New',monospace" font-size="11" fill="#8b949e">Natural-language search across entire projects,</text>
  <text x="467" y="234" font-family="'Courier New',monospace" font-size="11" fill="#8b949e">plus full file-by-file explanation mode.</text>
  <rect x="467" y="245" width="48" height="15" rx="3" fill="#161b22" stroke="#3fb950" stroke-width="0.8"/>
  <text x="491" y="257" font-family="'Courier New',monospace" font-size="10" fill="#3fb950" text-anchor="middle">Python</text>
  <rect x="521" y="245" width="50" height="15" rx="3" fill="#161b22" stroke="#58a6ff" stroke-width="0.8"/>
  <text x="546" y="257" font-family="'Courier New',monospace" font-size="10" fill="#58a6ff" text-anchor="middle">Tkinter</text>
  <rect x="577" y="245" width="86" height="15" rx="3" fill="#161b22" stroke="#ff8c42" stroke-width="0.8"/>
  <text x="620" y="257" font-family="'Courier New',monospace" font-size="10" fill="#ff8c42" text-anchor="middle">Claude Code</text>
  <text x="873" y="275" font-family="'Courier New',monospace" font-size="11" fill="#58a6ff" text-anchor="end">-> open</text>

</svg>
